<svg xmlns="http://www.w3.org/2000/svg" width="69" height="69" viewBox="0 0 69 69">
  <g id="Group_16" data-name="Group 16" transform="translate(-192 -58)">
    <g id="Path_3" data-name="Path 3" transform="translate(192 58)" fill="none">
      <path d="M34.5,0A34.5,34.5,0,1,1,0,34.5,34.5,34.5,0,0,1,34.5,0Z" stroke="none"/>
      <path d="M 34.49999618530273 0.9999923706054688 C 29.97708511352539 0.9999923706054688 25.58999633789062 1.885597229003906 21.46059799194336 3.632186889648438 C 17.4715576171875 5.319404602050781 13.88882446289062 7.735015869140625 10.81191635131836 10.81191635131836 C 7.735015869140625 13.88882446289062 5.319404602050781 17.4715576171875 3.632186889648438 21.46059799194336 C 1.885597229003906 25.58999633789062 0.9999923706054688 29.97708511352539 0.9999923706054688 34.49999618530273 C 0.9999923706054688 39.02290344238281 1.885597229003906 43.40999603271484 3.632186889648438 47.53939819335938 C 5.319404602050781 51.52843475341797 7.735015869140625 55.11116790771484 10.81191635131836 58.18806457519531 C 13.88882446289062 61.26496505737305 17.4715576171875 63.68058776855469 21.46059799194336 65.36780548095703 C 25.58999633789062 67.11439514160156 29.97708511352539 67.99998474121094 34.49999618530273 67.99998474121094 C 39.02290344238281 67.99998474121094 43.40999603271484 67.11439514160156 47.53939819335938 65.36780548095703 C 51.52843475341797 63.68058776855469 55.11116790771484 61.26496505737305 58.18806457519531 58.18806457519531 C 61.26496505737305 55.11116790771484 63.68058776855469 51.52843475341797 65.36780548095703 47.53939819335938 C 67.11439514160156 43.40999603271484 67.99998474121094 39.02290344238281 67.99998474121094 34.49999618530273 C 67.99998474121094 29.97708511352539 67.11439514160156 25.58999633789062 65.36780548095703 21.46059799194336 C 63.68058776855469 17.4715576171875 61.26496505737305 13.88882446289062 58.18806457519531 10.81191635131836 C 55.11116790771484 7.735015869140625 51.52843475341797 5.319404602050781 47.53939819335938 3.632186889648438 C 43.40999603271484 1.885597229003906 39.02290344238281 0.9999923706054688 34.49999618530273 0.9999923706054688 M 34.49999618530273 -7.62939453125e-06 C 53.55381774902344 -7.62939453125e-06 68.99998474121094 15.44617462158203 68.99998474121094 34.49999618530273 C 68.99998474121094 53.55381774902344 53.55381774902344 68.99998474121094 34.49999618530273 68.99998474121094 C 15.44617462158203 68.99998474121094 -7.62939453125e-06 53.55381774902344 -7.62939453125e-06 34.49999618530273 C -7.62939453125e-06 15.44617462158203 15.44617462158203 -7.62939453125e-06 34.49999618530273 -7.62939453125e-06 Z" stroke="none" fill="#e2e5e6"/>
    </g>
    <line id="Line_2" data-name="Line 2" y2="67.985" transform="translate(227.007 58.507)" fill="none" stroke="#dee1e2" stroke-width="1"/>
  </g>
</svg>
