<svg xmlns="http://www.w3.org/2000/svg" width="122" height="122" viewBox="0 0 122 122">
  <g id="Group_18" data-name="Group 18" transform="translate(-104 -247)">
    <g id="Path_1" data-name="Path 1" transform="translate(104 247)" fill="none">
      <path d="M61,0A61,61,0,1,1,0,61,61,61,0,0,1,61,0Z" stroke="none"/>
      <path d="M 61 1 C 52.89962005615234 1 45.04205322265625 2.586250305175781 37.64559936523438 5.714683532714844 C 34.09056854248047 7.218330383300781 30.66166687011719 9.079498291015625 27.45413208007812 11.24646759033203 C 24.27681732177734 13.39301300048828 21.28896331787109 15.85821533203125 18.57360076904297 18.57360076904297 C 15.85821533203125 21.28896331787109 13.39301300048828 24.27681732177734 11.24646759033203 27.45413208007812 C 9.079498291015625 30.66166687011719 7.218330383300781 34.09056854248047 5.714683532714844 37.64559936523438 C 2.586250305175781 45.04205322265625 1 52.89962005615234 1 61 C 1 69.10038757324219 2.586250305175781 76.95794677734375 5.714683532714844 84.35440063476562 C 7.218330383300781 87.90943145751953 9.079498291015625 91.33833312988281 11.24646759033203 94.54586791992188 C 13.39301300048828 97.72318267822266 15.85821533203125 100.7110290527344 18.57360076904297 103.426399230957 C 21.28896331787109 106.1417846679688 24.27681732177734 108.6069793701172 27.45413208007812 110.753532409668 C 30.66166687011719 112.9205017089844 34.09056854248047 114.7816696166992 37.64559936523438 116.2853164672852 C 45.04205322265625 119.4137496948242 52.89962005615234 121 61 121 C 69.10038757324219 121 76.95794677734375 119.4137496948242 84.35440063476562 116.2853164672852 C 87.90943145751953 114.7816696166992 91.33833312988281 112.9205017089844 94.54586791992188 110.753532409668 C 97.72318267822266 108.6069793701172 100.7110290527344 106.1417846679688 103.426399230957 103.426399230957 C 106.1417846679688 100.7110290527344 108.6069793701172 97.72318267822266 110.753532409668 94.54586791992188 C 112.9205017089844 91.33833312988281 114.7816696166992 87.90943145751953 116.2853164672852 84.35440063476562 C 119.4137496948242 76.95794677734375 121 69.10038757324219 121 61 C 121 52.89962005615234 119.4137496948242 45.04205322265625 116.2853164672852 37.64559936523438 C 114.7816696166992 34.09056854248047 112.9205017089844 30.66166687011719 110.753532409668 27.45413208007812 C 108.6069793701172 24.27681732177734 106.1417846679688 21.28896331787109 103.426399230957 18.57360076904297 C 100.7110290527344 15.85821533203125 97.72318267822266 13.39301300048828 94.54586791992188 11.24646759033203 C 91.33833312988281 9.079498291015625 87.90943145751953 7.218330383300781 84.35440063476562 5.714683532714844 C 76.95794677734375 2.586250305175781 69.10038757324219 1 61 1 M 61 0 C 94.68936920166016 0 122 27.31063079833984 122 61 C 122 94.68936920166016 94.68936920166016 122 61 122 C 27.31063079833984 122 0 94.68936920166016 0 61 C 0 27.31063079833984 27.31063079833984 0 61 0 Z" stroke="none" fill="#e2e5e6"/>
    </g>
    <path id="Path_2" data-name="Path 2" d="M17.251,73.6l4.38-14.723H0C3.821,39.078,7.559,19.71,11.323.2h3.525C13.283,10.353,11.7,20.315,10.237,30.3A50.154,50.154,0,0,0,9.5,39.427C9.872,48.97,16.382,54.8,26.178,54.658c9.592-.137,16.2-6.111,15.969-15.562-.175-7.1-1.594-14.172-2.573-21.242C38.765,12.011,37.789,6.192,36.856.16L40.343,0c3.766,19.477,7.514,38.863,11.337,58.637H30.073L34.38,73.6Z" transform="translate(139.16 271.253)" fill="#aa8c66"/>
  </g>
</svg>
